<?xml version="1.0" encoding="UTF-8"?>
<!-- Generator: Adobe Illustrator 24.1.0, SVG Export Plug-In . SVG Version: 6.00 Build 0)  -->
<svg version="1.1" id="Layer_1" xmlns="http://www.w3.org/2000/svg" xmlns:xlink="http://www.w3.org/1999/xlink" x="0px" y="0px" viewBox="0 0 32 32" style="enable-background:new 0 0 32 32;" xml:space="preserve">
<style type="text/css">
	.st0{fill:#1ED760;}
	.st1{fill:url(#SVGID_1_);}
	.st2{fill:#FFFFFF;}
	.st3{fill:#1E9EC1;}
	.st4{clip-path:url(#SVGID_4_);}
	.st5{clip-path:url(#SVGID_5_);fill:#FFFFFF;}
	.st6{clip-path:url(#SVGID_8_);}
	.st7{clip-path:url(#SVGID_9_);fill:#FFFFFF;}
	.st8{clip-path:url(#SVGID_12_);}
	.st9{clip-path:url(#SVGID_13_);fill:#FFFFFF;}
	.st10{fill:#FF0000;}
	.st11{fill:url(#SVGID_14_);}
	.st12{clip-path:url(#SVGID_17_);}
	.st13{clip-path:url(#SVGID_18_);fill:#FFFFFF;}
	.st14{clip-path:url(#SVGID_21_);}
	.st15{clip-path:url(#SVGID_22_);fill:#FFFFFF;}
	.st16{clip-path:url(#SVGID_25_);}
	.st17{clip-path:url(#SVGID_26_);fill:#FFFFFF;}
</style>
<g>
	<rect x="0" y="0.01" class="st10" width="31.94" height="31.94"/>
	<path class="st2" d="M26.37,10.71c-0.24-0.94-0.99-1.68-1.91-1.94c-1.69-0.46-8.48-0.46-8.48-0.46s-6.79,0-8.48,0.46   c-0.94,0.26-1.67,0.99-1.91,1.94c-0.46,1.7-0.46,5.27-0.46,5.27s0,3.56,0.46,5.27c0.24,0.94,0.99,1.68,1.91,1.94   c1.69,0.46,8.48,0.46,8.48,0.46s6.79,0,8.48-0.46c0.94-0.26,1.67-0.99,1.91-1.94c0.46-1.7,0.46-5.27,0.46-5.27   S26.83,12.42,26.37,10.71z M13.73,19.21v-6.47l5.68,3.24L13.73,19.21z"/>
</g>
</svg>